<svg width="289" height="29" viewBox="0 0 289 29" fill="none" xmlns="http://www.w3.org/2000/svg">
<path fill-rule="evenodd" clip-rule="evenodd" d="M22.6406 28H17.248V16.1699H6.3457V28H0.970703V0.40625H6.3457V11.4102H17.248V0.40625H22.6406V28ZM18.248 12.4102H5.3457V1.40625H1.9707V27H5.3457V15.1699H18.248V27H21.6406V1.40625H18.248V12.4102ZM44.5273 27L42.084 20.3203H31.3613L28.9531 27H25.4727L35.2461 1.40625H38.1992L47.9902 27H44.5273ZM32.0638 21.3203L29.6556 28H24.0204L34.5575 0.40625H38.8873L49.4435 28H43.8283L41.385 21.3203H32.0638ZM41.082 17.543L36.7227 5.57227L32.3809 17.543H41.082ZM33.8073 16.543H39.6536L36.7246 8.49986L33.8073 16.543ZM72.1055 28H67.1717L55.8281 10.6364V28H50.4355V0.40625H55.3698L66.748 17.8529V0.40625H72.1055V28ZM67.748 21.2168L54.8281 1.40625H51.4355V27H54.8281V7.27734L67.7129 27H71.1055V1.40625H67.748V21.2168ZM96.9961 23.9571L96.8161 24.215C95.8251 25.6344 94.4475 26.6811 92.7276 27.3665L92.7239 27.3679C91.036 28.0329 89.1022 28.3516 86.9434 28.3516C84.6955 28.3516 82.6621 27.8254 80.8733 26.7495L80.8687 26.7468C79.0791 25.6574 77.6993 24.1152 76.7302 22.1515L76.7279 22.1468C75.7731 20.1863 75.2981 17.9435 75.2735 15.4434L75.2734 15.4336L75.2734 13.2012C75.2734 9.20052 76.2036 5.95153 78.1992 3.59076L78.2013 3.58831C80.229 1.20506 83.0608 0.0546875 86.5566 0.0546875C89.4018 0.0546875 91.7994 0.78762 93.6507 2.34537C95.5031 3.89226 96.5945 6.06797 96.9858 8.76875L97.1514 9.91211H91.7906L91.6381 9.09578C91.3509 7.55889 90.7738 6.52491 89.9915 5.86771C89.2109 5.2119 88.1079 4.83203 86.5742 4.83203C84.5789 4.83203 83.1847 5.51655 82.2302 6.81402C81.2461 8.15603 80.6776 10.2097 80.666 13.1152C80.666 13.1159 80.666 13.1165 80.666 13.1172L80.666 15.2051C80.666 17.9283 81.2878 19.9746 82.425 21.4478C83.5379 22.8779 85.0149 23.5918 86.9609 23.5918C88.1557 23.5918 89.1636 23.4587 89.9991 23.2111C90.654 23.0171 91.1948 22.7204 91.6387 22.3267V17.998H85.7148V13.2559H96.9961V23.9571ZM92.6387 16.998V22.7461C92.0176 23.4141 91.2324 23.8887 90.2832 24.1699C89.334 24.4512 88.2266 24.5918 86.9609 24.5918C84.7227 24.5918 82.9473 23.748 81.6348 22.0605C80.3223 20.3613 79.666 18.0762 79.666 15.2051V13.1133C79.6777 10.1016 80.2637 7.80469 81.4238 6.22266C82.5957 4.62891 84.3125 3.83203 86.5742 3.83203C89.9727 3.83203 91.9883 5.52539 92.6211 8.91211H95.9961C95.9462 8.56796 95.8845 8.23463 95.8108 7.91211C95.3475 5.88442 94.4132 4.28416 93.0078 3.11133C91.3789 1.74023 89.2285 1.05469 86.5566 1.05469C83.2988 1.05469 80.7676 2.11523 78.9629 4.23633C77.1699 6.35742 76.2734 9.3457 76.2734 13.2012V15.4336C76.2969 17.8125 76.748 19.9043 77.627 21.709C78.5176 23.5137 79.7715 24.9082 81.3887 25.8926C83.0059 26.8652 84.8574 27.3516 86.9434 27.3516C89.0059 27.3516 90.8105 27.0469 92.3574 26.4375C93.916 25.8164 95.1289 24.8848 95.9961 23.6426V14.2559H86.7148V16.998H92.6387ZM106.675 0.40625L114.365 19.6004L122.056 0.40625H128.109V28H122.734V17.0185L122.888 11.8057L116.322 28H112.391L105.853 11.8825L106.014 17.0176V28H100.639V0.40625H106.675ZM104.68 6.32812L113.064 27H115.648L124.051 6.27539L123.734 17.0332V27H127.109V1.40625H122.732L114.365 22.2891L105.998 1.40625H101.639V27H105.014V17.0332L104.68 6.32812ZM149.961 27L147.518 20.3203H136.795L134.387 27H130.906L140.68 1.40625H143.633L153.424 27H149.961ZM137.497 21.3203L135.089 28H129.454L139.991 0.40625H144.321L154.877 28H149.262L146.819 21.3203H137.497ZM146.516 17.543L142.156 5.57227L137.814 17.543H146.516ZM139.241 16.543H145.087L142.158 8.49988L139.241 16.543ZM177.539 28H172.605L161.262 10.6364V28H155.869V0.40625H160.803L172.182 17.8528V0.40625H177.539V28ZM173.182 21.2168L160.262 1.40625H156.869V27H160.262V7.27734L173.146 27H176.539V1.40625H173.182V21.2168ZM211.359 23.9571L211.179 24.215C210.188 25.6344 208.811 26.6811 207.091 27.3665L207.087 27.3679C205.399 28.0329 203.465 28.3516 201.307 28.3516C199.059 28.3516 197.025 27.8254 195.237 26.7495L195.232 26.7468C193.442 25.6574 192.063 24.1152 191.093 22.1515L191.091 22.1468C190.136 20.1863 189.661 17.9435 189.637 15.4434L189.637 15.4336L189.637 13.2012C189.637 9.20052 190.567 5.95153 192.562 3.59076L192.565 3.58831C194.592 1.20506 197.424 0.0546875 200.92 0.0546875C203.765 0.0546875 206.162 0.787351 208.013 2.34451C209.866 3.89146 210.958 6.06749 211.349 8.76875L211.515 9.91211H206.154L206.001 9.09578C205.714 7.55889 205.137 6.52491 204.355 5.86771C203.574 5.2119 202.471 4.83203 200.938 4.83203C198.942 4.83203 197.548 5.51655 196.594 6.81402C195.609 8.15633 195.041 10.2107 195.029 13.1172V15.2051C195.029 17.929 195.651 19.9757 196.789 21.449C197.902 22.8783 199.379 23.5918 201.324 23.5918C202.519 23.5918 203.527 23.4587 204.362 23.2111C205.017 23.0171 205.558 22.7204 206.002 22.3267V17.998H200.078V13.2559H211.359V23.9571ZM207.002 16.998V22.7461C206.381 23.4141 205.596 23.8887 204.646 24.1699C203.697 24.4512 202.59 24.5918 201.324 24.5918C199.086 24.5918 197.311 23.748 195.998 22.0605C194.686 20.3613 194.029 18.0762 194.029 15.2051V13.1133C194.041 10.1016 194.627 7.80469 195.787 6.22266C196.959 4.62891 198.676 3.83203 200.938 3.83203C204.336 3.83203 206.352 5.52539 206.984 8.91211H210.359C210.31 8.56796 210.248 8.23463 210.174 7.91211C209.711 5.88442 208.776 4.28416 207.371 3.11133C205.742 1.74023 203.592 1.05469 200.92 1.05469C197.662 1.05469 195.131 2.11523 193.326 4.23633C191.533 6.35742 190.637 9.3457 190.637 13.2012V15.4336C190.66 17.8125 191.111 19.9043 191.99 21.709C192.881 23.5137 194.135 24.9082 195.752 25.8926C197.369 26.8652 199.221 27.3516 201.307 27.3516C203.369 27.3516 205.174 27.0469 206.721 26.4375C208.279 25.8164 209.492 24.8848 210.359 23.6426V14.2559H201.078V16.998H207.002ZM232.578 27L230.135 20.3203H219.412L217.004 27H213.523L223.297 1.40625H226.25L236.041 27H232.578ZM220.115 21.3203L217.706 28H212.071L222.608 0.40625H226.938L237.494 28H231.879L229.436 21.3203H220.115ZM229.133 17.543L224.773 5.57227L220.432 17.543H229.133ZM221.858 16.543H227.704L224.775 8.49988L221.858 16.543ZM244.522 0.40625L252.213 19.6004L259.903 0.40625H265.957V28H260.582V17.0185L260.735 11.8057L254.17 28H250.239L243.701 11.8824L243.861 17.0176V28H238.486V0.40625H244.522ZM242.527 6.32812L250.912 27H253.496L261.898 6.27539L261.582 17.0332V27H264.957V1.40625H260.58L252.213 22.2891L243.846 1.40625H239.486V27H242.861V17.0332L242.527 6.32812ZM286.383 16.1699H275.291V23.2402H288.176V28H269.916V0.40625H288V5.18359H275.291V11.4102H286.383V16.1699ZM274.291 12.4102V4.18359H287V1.40625H270.916V27H287.176V24.2402H274.291V15.1699H285.383V12.4102H274.291Z" fill="#FCFCFC"/>
</svg>
